<?xml version="1.0" encoding="UTF-8"?><svg id="a" xmlns="http://www.w3.org/2000/svg" viewBox="0 0 705.71 235.71"><defs><style>.c{fill:#ffec00;stroke:#000;stroke-linecap:round;stroke-linejoin:round;stroke-width:.71px;}</style></defs><g id="b"><path class="c" d="M270.61,.36L42.49,228.48c-4.4,4.4-10.38,6.88-16.61,6.88h-2.02c-12.98,0-23.5-10.52-23.5-23.5V.36H23.86c6.49,0,11.75,5.26,11.75,11.75V185.51L213.87,7.24c4.4-4.4,10.38-6.88,16.61-6.88h40.12Z"/><path class="c" d="M705.35,.36V12.11c0,12.98-10.52,23.5-23.5,23.5h-58.75V223.61c0,6.49-5.26,11.75-11.75,11.75h-11.75c-6.49,0-11.75-5.26-11.75-11.75V47.35c0-6.49-5.26-11.75-11.75-11.75h-123.37c-17.85,0-32.32,14.47-32.32,32.31s14.47,32.32,32.32,32.32h35.24c37.32,0,67.57,30.24,67.57,67.56s-30.25,67.56-67.57,67.56h-146.87c-12.98,0-23.5-10.52-23.5-23.5V50.21L139.34,228.48c-4.4,4.4-10.38,6.88-16.61,6.88h-40.12L310.73,7.24c4.4-4.4,10.38-6.88,16.61-6.88h2.02c12.98,0,23.5,10.52,23.5,23.5V200.11h135.12c17.85,0,32.32-14.47,32.32-32.31s-14.47-32.32-32.32-32.32h-35.24c-37.32,0-67.57-30.24-67.57-67.56S415.42,.36,452.74,.36h252.62Z"/></g></svg>